<?xml version="1.0" standalone="no"?>
<!DOCTYPE svg PUBLIC "-//W3C//DTD SVG 20010904//EN"
 "http://www.w3.org/TR/2001/REC-SVG-20010904/DTD/svg10.dtd">
<svg version="1.0" xmlns="http://www.w3.org/2000/svg"
 width="131" height="39" viewBox="0 0 300.000000 191.000000"
 preserveAspectRatio="xMidYMid meet">
<metadata>
Created by potrace 1.10, written by Peter Selinger 2001-2011
</metadata>
<g transform="translate(0.000000,191.000000) scale(0.100000,-0.100000)"
fill="#000000" stroke="none">
<path d="M741 1598 c-38 -21 -48 -44 -31 -72 27 -44 351 -366 373 -371 12 -2
193 -6 402 -8 l380 -3 51 -26 c111 -58 171 -168 162 -298 -8 -110 -62 -190
-162 -242 -35 -19 -64 -22 -212 -28 -135 -4 -176 -9 -195 -22 -13 -9 -104 -94
-202 -190 -118 -116 -177 -180 -177 -194 0 -11 9 -29 21 -40 20 -18 41 -19
368 -19 248 1 363 5 406 14 77 17 174 56 250 99 82 48 221 190 267 274 212
389 61 873 -330 1055 -40 19 -108 44 -150 56 -74 20 -99 21 -637 24 -437 3
-565 1 -584 -9z m1097 -39 c194 -21 327 -83 458 -213 89 -89 148 -192 181
-316 24 -89 24 -282 0 -368 -55 -203 -189 -365 -379 -460 -134 -66 -182 -72
-591 -75 -196 -1 -357 1 -357 5 0 4 10 14 21 22 12 8 97 90 190 182 l169 166
152 5 c184 5 225 13 296 60 98 65 147 173 140 303 -8 132 -74 231 -196 292
-47 23 -51 23 -443 26 l-397 3 -181 184 c-100 101 -181 186 -181 189 0 10
1016 6 1118 -5z"/>
<path d="M852 1064 c-38 -26 -28 -57 48 -138 39 -42 70 -82 70 -89 0 -7 -49
-161 -110 -342 -60 -181 -110 -339 -110 -351 0 -38 31 -54 103 -54 79 0 63
-12 377 289 118 114 311 298 428 410 117 112 217 212 223 222 8 15 5 24 -15
44 l-25 25 -483 0 c-421 0 -486 -2 -506 -16z m956 -81 c-35 -32 -115 -107
-178 -168 -63 -60 -209 -200 -325 -310 -115 -110 -250 -239 -300 -287 l-90
-88 -69 0 c-61 0 -67 2 -61 18 3 9 58 171 121 360 l114 343 -77 85 c-42 46
-80 84 -85 84 -4 0 -8 5 -8 10 0 7 177 10 511 10 l510 0 -63 -57z"/>
<path d="M1130 870 c0 -24 25 -27 34 -4 3 8 2 12 -4 9 -6 -3 -10 -1 -10 4 0 6
-4 11 -10 11 -5 0 -10 -9 -10 -20z"/>
<path d="M1433 845 c-7 -20 2 -29 21 -22 9 4 13 13 10 22 -8 19 -23 19 -31 0z"/>
<path d="M1315 730 c-21 -22 -26 -33 -18 -41 12 -12 33 -4 33 12 0 6 -4 7 -10
4 -21 -13 -9 10 17 32 14 13 22 23 16 23 -5 0 -22 -14 -38 -30z"/>
</g>
</svg>
